<svg width="84" height="24" viewBox="0 0 84 24" fill="none" xmlns="http://www.w3.org/2000/svg">
<mask id="mask0_2560_133" style="mask-type:alpha" maskUnits="userSpaceOnUse" x="0" y="0" width="21" height="24">
<path d="M11.535 23.3745C11.8957 22.4134 12.0223 21.6071 13.4174 20.6647C14.1488 20.1705 14.7996 19.9611 15.4504 19.7517C16.0864 19.547 16.7224 19.3423 17.4336 18.8717C18.6334 18.0764 20.0183 15.3923 20.0183 15.3923C18.2243 13.5983 16.1789 10.4835 15.4504 7.98221C14.5556 4.90988 13.2398 2.12977 10.7693 0C9.55717 2.32665 7.79562 3.3968 5.40499 5.58397C3.72264 7.12314 1.69151 8.98446 0 9.16483C0 9.16483 0.24054 10.5594 1.3602 11.7764C2.18347 12.6713 2.1374 13.4807 1.69151 14.391C0.83241 16.1449 1.08294 18.8717 1.08294 18.8717L11.535 23.3745Z" fill="#D9D9D9"/>
</mask>
<g mask="url(#mask0_2560_133)">
<path d="M11.535 23.3745C11.8957 22.4134 12.0223 21.6071 13.4174 20.6647C14.1488 20.1705 14.7996 19.9611 15.4504 19.7517C16.0864 19.547 16.7224 19.3423 17.4336 18.8717C18.6334 18.0764 20.0183 15.3923 20.0183 15.3923C18.2243 13.5983 16.1789 10.4835 15.4504 7.98221C14.5556 4.90988 13.2398 2.12977 10.7693 0C9.91924 1.89628 7.7211 3.80567 6.57893 4.76494C5.89364 5.3403 5.33551 5.7348 4.79554 6.11647C4.14977 6.57292 3.52996 7.01102 2.74962 7.7182C0.956822 9.35172 0 9.16483 0 9.16483C0 9.16483 0.24054 10.5594 1.3602 11.7764C2.18347 12.6713 2.1374 13.4807 1.69151 14.391C0.83241 16.1449 1.08294 18.8717 1.08294 18.8717L11.535 23.3745Z" fill="url(#paint0_linear_2560_133)"/>
<path d="M8.55536 11.7422C7.23095 11.7422 -0.00875361 9.20078 -0.00875361 9.20078C-0.558608 6.80992 7.02627 1.79056 10.7607 0.0359497C10.4355 4.53867 9.17668 7.28938 8.55536 11.7422Z" fill="url(#paint1_linear_2560_133)"/>
<path d="M8.55604 11.7401C7.23163 11.7401 -0.00803775 9.19864 -0.00803775 9.19864C-0.276631 8.03076 -1.18668 17.5771 1.07497 18.8983C4.905 14.2808 8.23391 13.4216 9.48672 14.6745C8.84243 13.8153 9.37939 13.2793 8.55604 11.7401Z" fill="url(#paint2_linear_2560_133)"/>
<path d="M8.62654 11.0613L10.7602 0.0359497C13.9919 2.28703 15.7657 4.47071 20.0092 15.4283L13.4587 15.2135C12.1343 15.2135 11.3469 16.2158 11.3469 16.2158C8.88421 14.7267 8.30445 13.1016 8.62654 11.0613Z" fill="url(#paint3_linear_2560_133)"/>
<path d="M11.526 23.4143L16.1077 19.7991C18.1838 18.9758 19.5798 17.6872 20.0092 15.4321L13.4587 15.2173C12.1343 15.2173 11.3468 16.2196 11.3468 16.2196C9.91522 20.1928 11.526 23.4143 11.526 23.4143Z" fill="url(#paint4_linear_2560_133)"/>
</g>
<path d="M26.0969 14.6021C26.4075 17.9231 27.6977 19.0938 29.4179 19.0938C31.2337 19.0938 32.5238 17.8992 32.5238 15.2711V4.59136L31.4487 3.32509V3.13395H36.2271V3.32509L35.152 4.59136V14.5065C35.152 18.5204 32.7867 20.599 29.4179 20.599C26.8853 20.599 24.6395 19.1416 24.0183 16.2984L25.8819 14.5782L26.0969 14.6021Z" fill="white"/>
<path d="M40.557 20.599C38.1916 20.599 36.6148 19.2371 36.6148 17.2541C36.6148 15.1755 38.1916 13.9331 40.9631 13.3836L44.4991 12.6907V11.6873C44.4991 9.94316 43.4479 8.98748 41.9905 8.98748C40.4136 8.98748 39.2668 10.0387 39.2668 12.0457L36.8537 11.4961C37.1643 9.39364 39.0518 7.72121 42.0144 7.72121C45.0247 7.72121 46.96 9.34586 46.96 12.2129V18.9504L47.7962 20.1689V20.3601H44.4991V18.2337C43.7346 19.715 42.3488 20.599 40.557 20.599ZM44.4991 16.3701V13.8614L41.7993 14.411C40.0552 14.841 39.1712 15.6772 39.1712 17.0152C39.1712 18.162 40.0074 18.9743 41.3215 18.9743C42.9939 18.9743 44.093 17.8036 44.4991 16.3701Z" fill="white"/>
<path d="M53.9486 20.599C50.6993 20.599 48.4056 17.9709 48.4056 14.1481C48.4056 10.3971 50.9382 7.72121 54.4264 7.72121C55.7883 7.72121 57.0545 8.27072 57.8907 9.29808V4.7825L57.0545 3.56401V3.37287L60.3277 2.77557V19.0221L61.1639 20.1689V20.3601H57.8907V18.0903C57.2218 19.5955 55.6688 20.599 53.9486 20.599ZM54.522 18.8549C56.2183 18.8549 57.6279 17.5647 57.8907 15.6533V11.9979C57.4846 10.1582 56.2661 9.08305 54.6653 9.08305C52.4434 9.08305 50.9621 11.2572 50.9621 14.1481C50.9621 16.9196 52.3717 18.8549 54.522 18.8549Z" fill="white"/>
<path d="M64.4067 13.9331C64.4545 16.9435 66.1508 18.6876 68.4206 18.6876C70.1886 18.6876 71.4309 17.708 72.0282 15.9639L73.3901 16.3462C72.8167 18.9026 70.8336 20.599 67.9666 20.599C64.2395 20.599 61.8981 17.708 61.8981 14.1481C61.8981 10.6121 64.0961 7.72121 67.7516 7.72121C71.9327 7.72121 73.4857 10.8272 73.2945 13.9331H64.4067ZM67.7516 8.98748C65.9119 8.98748 64.7651 10.6121 64.4784 12.7385H70.7381C70.6186 10.7077 69.5674 8.98748 67.7516 8.98748Z" fill="white"/>
<path d="M78.9823 20.599C76.0914 20.599 74.2995 19.1655 73.8455 17.6842L75.4702 16.1551H75.6613C76.0436 18.0425 77.3099 19.261 78.9823 19.261C80.368 19.261 81.2998 18.4487 81.2998 17.2302C81.2998 16.2267 80.6786 15.5578 79.4601 15.1994L77.3815 14.6021C75.8763 14.1959 74.2756 13.3836 74.2756 11.2572C74.2756 9.20251 76.1392 7.72121 78.7195 7.72121C80.8698 7.72121 82.5661 8.74856 83.2351 10.1582L81.7299 11.5678L81.5387 11.5439C81.2281 9.94316 80.0813 9.01137 78.6956 9.01137C77.4532 9.01137 76.5692 9.75202 76.5692 10.7316C76.5692 11.6156 77.1665 12.1173 78.3133 12.4518L80.2964 13.0013C82.1599 13.527 83.7129 14.411 83.7129 16.7524C83.7129 18.9265 81.7538 20.599 78.9823 20.599Z" fill="white"/>
<defs>
<linearGradient id="paint0_linear_2560_133" x1="10.0092" y1="23.3745" x2="10.0092" y2="1.19358e-07" gradientUnits="userSpaceOnUse">
<stop offset="0.0797267" stop-color="#053B1A"/>
<stop offset="1" stop-color="#1AA34F"/>
</linearGradient>
<linearGradient id="paint1_linear_2560_133" x1="5.36178" y1="0.0359497" x2="5.36178" y2="11.7422" gradientUnits="userSpaceOnUse">
<stop stop-color="#1DC05B"/>
<stop offset="0.789878" stop-color="#34C46B"/>
</linearGradient>
<linearGradient id="paint2_linear_2560_133" x1="9.48672" y1="10.7069" x2="-0.416504" y2="17.2913" gradientUnits="userSpaceOnUse">
<stop stop-color="#21944D"/>
<stop offset="1" stop-color="#085C28"/>
</linearGradient>
<linearGradient id="paint3_linear_2560_133" x1="14.2772" y1="16.2158" x2="14.2772" y2="0.0359498" gradientUnits="userSpaceOnUse">
<stop stop-color="#5DFF9B"/>
<stop offset="1" stop-color="#83FFB2"/>
</linearGradient>
<linearGradient id="paint4_linear_2560_133" x1="11.2831" y1="15.2173" x2="19.48" y2="23.4143" gradientUnits="userSpaceOnUse">
<stop stop-color="#1F904A"/>
<stop offset="1" stop-color="#085C28"/>
</linearGradient>
</defs>
</svg>
