<svg width="48" height="13" viewBox="0 0 48 13" fill="none" xmlns="http://www.w3.org/2000/svg">
<mask id="mask0_3995_6340" style="mask-type:alpha" maskUnits="userSpaceOnUse" x="0" y="0" width="12" height="13">
<path d="M6.61402 13C6.82085 12.4654 6.89346 12.017 7.69336 11.4929C8.11277 11.2181 8.48594 11.1016 8.85906 10.9851C9.22378 10.8713 9.58844 10.7574 9.9962 10.4957C10.6842 10.0534 11.4783 8.56061 11.4783 8.56061C10.4496 7.56283 9.27677 5.83052 8.85906 4.43939C8.346 2.73068 7.59154 1.1845 6.17498 0C5.47997 1.29399 4.46992 1.88917 3.09916 3.10558C2.13452 3.96161 0.96989 4.99681 0 5.09712C0 5.09712 0.137923 5.87274 0.779921 6.5496C1.25198 7.04729 1.22556 7.49741 0.96989 8.00371C0.477294 8.97918 0.620942 10.4957 0.620942 10.4957L6.61402 13Z" fill="#D9D9D9"/>
</mask>
<g mask="url(#mask0_3995_6340)">
<path d="M6.61402 13C6.82085 12.4654 6.89346 12.017 7.69336 11.4929C8.11277 11.2181 8.48594 11.1016 8.85906 10.9851C9.22378 10.8713 9.58844 10.7574 9.9962 10.4957C10.6842 10.0534 11.4783 8.56061 11.4783 8.56061C10.4496 7.56283 9.27677 5.83052 8.85906 4.43939C8.346 2.73068 7.59154 1.1845 6.17498 0C5.68758 1.05464 4.42719 2.11657 3.77228 2.65007C3.37934 2.97007 3.05932 3.18947 2.74971 3.40174C2.37943 3.6556 2.02403 3.89925 1.5766 4.29256C0.548631 5.20106 0 5.09712 0 5.09712C0 5.09712 0.137923 5.87274 0.779921 6.5496C1.25198 7.04729 1.22556 7.49741 0.96989 8.00371C0.477294 8.97918 0.620942 10.4957 0.620942 10.4957L6.61402 13Z" fill="url(#paint0_linear_3995_6340)"/>
<path d="M4.90558 6.53058C4.14618 6.53058 -0.00498137 5.11714 -0.00498137 5.11714C-0.320261 3.78744 4.02882 0.995866 6.17008 0.0200195C5.98362 2.52426 5.26184 4.05409 4.90558 6.53058Z" fill="url(#paint1_linear_3995_6340)"/>
<path d="M4.90598 6.52939C4.14658 6.52939 -0.00455981 5.11592 -0.00455981 5.11592C-0.158568 4.46638 -0.680381 9.77571 0.616425 10.5105C2.81252 7.94243 4.72127 7.46459 5.43962 8.16135C5.07019 7.68352 5.37808 7.38539 4.90598 6.52939Z" fill="url(#paint2_linear_3995_6340)"/>
<path d="M4.94631 6.1519L6.16974 0.0200195C8.02275 1.27198 9.03982 2.48646 11.473 8.58063L7.71705 8.46118C6.95765 8.46118 6.50613 9.01859 6.50613 9.01859C5.09406 8.19044 4.76164 7.28663 4.94631 6.1519Z" fill="url(#paint3_linear_3995_6340)"/>
<path d="M6.60897 13.0222L9.23606 11.0115C10.4265 10.5536 11.2269 9.83694 11.4731 8.58276L7.71716 8.46332C6.95776 8.46332 6.50624 9.02073 6.50624 9.02073C5.68537 11.2305 6.60897 13.0222 6.60897 13.0222Z" fill="url(#paint4_linear_3995_6340)"/>
</g>
<path d="M14.9636 8.12109C15.1417 9.96809 15.8814 10.6192 16.8678 10.6192C17.9089 10.6192 18.6487 9.9548 18.6487 8.49314V2.55351L18.0322 1.84926V1.74296H20.7721V1.84926L20.1556 2.55351V8.06793C20.1556 10.3003 18.7994 11.4563 16.8678 11.4563C15.4157 11.4563 14.1279 10.6458 13.7717 9.06452L14.8403 8.1078L14.9636 8.12109Z" fill="#060E09"/>
<path d="M23.2548 11.4563C21.8986 11.4563 20.9944 10.6989 20.9944 9.59603C20.9944 8.43999 21.8986 7.74903 23.4877 7.44341L25.5152 7.05806V6.49998C25.5152 5.52997 24.9124 4.99846 24.0768 4.99846C23.1726 4.99846 22.515 5.58312 22.515 6.6993L21.1314 6.39368C21.3095 5.22435 22.3917 4.29421 24.0905 4.29421C25.8166 4.29421 26.9262 5.19778 26.9262 6.79231V10.5395L27.4057 11.2171V11.3234H25.5152V10.1408C25.0768 10.9647 24.2822 11.4563 23.2548 11.4563ZM25.5152 9.10438V7.70917L23.9672 8.01478C22.9671 8.25396 22.4602 8.71904 22.4602 9.46315C22.4602 10.101 22.9397 10.5527 23.6932 10.5527C24.6521 10.5527 25.2823 9.90165 25.5152 9.10438Z" fill="#060E09"/>
<path d="M30.9334 11.4563C29.0703 11.4563 27.7551 9.99466 27.7551 7.86862C27.7551 5.78244 29.2073 4.29421 31.2074 4.29421C31.9882 4.29421 32.7143 4.59983 33.1938 5.1712V2.65981L32.7143 1.98214V1.87583L34.5911 1.54364V10.5793L35.0706 11.2171V11.3234H33.1938V10.0611C32.8102 10.8982 31.9197 11.4563 30.9334 11.4563ZM31.2622 10.4863C32.2348 10.4863 33.0431 9.76877 33.1938 8.70575V6.67272C32.9609 5.64956 32.2622 5.05161 31.3444 5.05161C30.0703 5.05161 29.221 6.2608 29.221 7.86862C29.221 9.41 30.0292 10.4863 31.2622 10.4863Z" fill="#060E09"/>
<path d="M36.93 7.74903C36.9574 9.42329 37.93 10.3933 39.2315 10.3933C40.2452 10.3933 40.9576 9.8485 41.3001 8.87849L42.0809 9.09109C41.7521 10.5129 40.6151 11.4563 38.9712 11.4563C36.8341 11.4563 35.4915 9.8485 35.4915 7.86862C35.4915 5.90203 36.7519 4.29421 38.8479 4.29421C41.2453 4.29421 42.1357 6.02162 42.0261 7.74903H36.93ZM38.8479 4.99846C37.793 4.99846 37.1355 5.90203 36.9711 7.08464H40.5603C40.4918 5.95518 39.889 4.99846 38.8479 4.99846Z" fill="#060E09"/>
<path d="M45.2874 11.4563C43.6298 11.4563 42.6024 10.659 42.3421 9.83521L43.2736 8.98479H43.3832C43.6024 10.0345 44.3285 10.7122 45.2874 10.7122C46.082 10.7122 46.6163 10.2604 46.6163 9.58274C46.6163 9.02465 46.2601 8.6526 45.5614 8.45328L44.3696 8.12109C43.5065 7.89519 42.5887 7.44341 42.5887 6.2608C42.5887 5.11805 43.6572 4.29421 45.1367 4.29421C46.3697 4.29421 47.3423 4.86558 47.7259 5.64956L46.8629 6.43354L46.7533 6.42025C46.5752 5.52997 45.9176 5.01175 45.123 5.01175C44.4107 5.01175 43.9038 5.42367 43.9038 5.96847C43.9038 6.46011 44.2463 6.73916 44.9039 6.92519L46.0409 7.23081C47.1095 7.52314 47.9999 8.01478 47.9999 9.31699C47.9999 10.5262 46.8766 11.4563 45.2874 11.4563Z" fill="#060E09"/>
<defs>
<linearGradient id="paint0_linear_3995_6340" x1="5.73913" y1="13" x2="5.73913" y2="6.63822e-08" gradientUnits="userSpaceOnUse">
<stop offset="0.0797267" stop-color="#053B1A"/>
<stop offset="1" stop-color="#1AA34F"/>
</linearGradient>
<linearGradient id="paint1_linear_3995_6340" x1="3.07442" y1="0.0200195" x2="3.07442" y2="6.53058" gradientUnits="userSpaceOnUse">
<stop stop-color="#1DC05B"/>
<stop offset="0.789878" stop-color="#34C46B"/>
</linearGradient>
<linearGradient id="paint2_linear_3995_6340" x1="5.43962" y1="5.95473" x2="-0.131332" y2="9.77348" gradientUnits="userSpaceOnUse">
<stop stop-color="#21944D"/>
<stop offset="1" stop-color="#085C28"/>
</linearGradient>
<linearGradient id="paint3_linear_3995_6340" x1="8.18634" y1="9.01859" x2="8.18634" y2="0.0200196" gradientUnits="userSpaceOnUse">
<stop stop-color="#5DFF9B"/>
<stop offset="1" stop-color="#83FFB2"/>
</linearGradient>
<linearGradient id="paint4_linear_3995_6340" x1="6.46967" y1="8.46332" x2="11.0264" y2="13.1612" gradientUnits="userSpaceOnUse">
<stop stop-color="#1F904A"/>
<stop offset="1" stop-color="#085C28"/>
</linearGradient>
</defs>
</svg>
